<svg xmlns="http://www.w3.org/2000/svg" xmlns:xlink="http://www.w3.org/1999/xlink" width="31" height="29.66" viewBox="0 0 31 29.66">
  <defs>
    <style>
      .cls-1 {
        fill: #fff;
        fill-rule: evenodd;
        filter: url(#filter);
      }
    </style>
    <filter id="filter" x="1039" y="2122.34" width="31" height="29.66" filterUnits="userSpaceOnUse">
      <feOffset result="offset" dy="1" in="SourceAlpha"/>
      <feGaussianBlur result="blur" stdDeviation="1"/>
      <feFlood result="flood" flood-opacity="0.13"/>
      <feComposite result="composite" operator="in" in2="blur"/>
      <feBlend result="blend" in="SourceGraphic"/>
    </filter>
  </defs>
  <path id="ball.svg" class="cls-1" d="M1053.85,2148.69a13.18,13.18,0,1,1,13.18-13.18A13.192,13.192,0,0,1,1053.85,2148.69Zm11.11-11.38a16.613,16.613,0,0,0-7.01-.48,49.5,49.5,0,0,1,2.19,8.03A11.281,11.281,0,0,0,1064.96,2137.31Zm-6.72,8.58a46.161,46.161,0,0,0-2.4-8.54c-0.02.01-.05,0.02-0.07,0.03-6.35,2.21-8.63,6.61-8.83,7.03A11.263,11.263,0,0,0,1058.24,2145.89Zm-12.76-2.84a17.916,17.916,0,0,1,9.15-7.42c0.15-.05.3-0.1,0.45-0.14-0.28-.64-0.59-1.28-0.91-1.91a41.636,41.636,0,0,1-11.57,1.6c-0.01.12-.01,0.23-0.01,0.35A11.222,11.222,0,0,0,1045.48,2143.05Zm-2.65-9.83a41.63,41.63,0,0,0,10.4-1.37,69.948,69.948,0,0,0-4.17-6.51A11.3,11.3,0,0,0,1042.83,2133.22Zm8.38-8.64a61.479,61.479,0,0,1,4.2,6.59,12.711,12.711,0,0,0,5.9-4.06,11.181,11.181,0,0,0-7.46-2.84A11.491,11.491,0,0,0,1051.21,2124.58Zm11.35,3.83a15,15,0,0,1-6.29,4.44c0.27,0.53.52,1.08,0.75,1.63,0.08,0.19.17,0.39,0.24,0.58a26.318,26.318,0,0,1,7.84.36A11.137,11.137,0,0,0,1062.56,2128.41Z" transform="translate(-1039 -2122.34)"/>
</svg>
