<svg xmlns="http://www.w3.org/2000/svg" width="18" height="13" viewBox="0 0 18 13">
  <defs>
    <style>
      .cls-1 {
        fill: #fff;
        stroke: #fff;
        stroke-linejoin: round;
        stroke-width: 1px;
        fill-rule: evenodd;
      }
    </style>
  </defs>
  <path id="select.svg" class="cls-1" d="M738.41,635.979L738.5,636a0.6,0.6,0,0,0,.094-0.02h0.131l0.225-.078c0.012,0,.018,0,0.018-0.01a0.036,0.036,0,0,1,.028-0.019,0.458,0.458,0,0,0,.075-0.039c0.031-.02.072-0.043,0.122-0.069l5.472-5.627a1.277,1.277,0,0,0,.337-0.89,1.22,1.22,0,0,0-.347-0.879,1.113,1.113,0,0,0-.833-0.361,1.13,1.13,0,0,0-.844.371l-4.478,4.631-4.479-4.631a1.178,1.178,0,0,0-.852-0.371,1.117,1.117,0,0,0-.834.371,1.333,1.333,0,0,0-.337.9,1.2,1.2,0,0,0,.337.86l5.471,5.627a0.018,0.018,0,0,0,.019.02l0.169,0.1a0.706,0.706,0,0,1,.262.1h0.15Z" transform="translate(-729.5 -625.5)"/>
</svg>
