<svg xmlns="http://www.w3.org/2000/svg" width="30" height="25.094" viewBox="0 0 30 25.094">
  <defs>
    <style>
      .cls-1 {
        fill: #fff;
        fill-rule: evenodd;
      }
    </style>
  </defs>
  <path id="speech.svg" class="cls-1" d="M41.236,249.025H60.807a2.236,2.236,0,0,1,2.236,2.236v12.487a2.236,2.236,0,0,1-2.236,2.237H50.671l-5.7,5.136v-5.136H41.236A2.236,2.236,0,0,1,39,263.748V251.261A2.236,2.236,0,0,1,41.236,249.025Zm22.732,15.819V253.935h2.8A2.184,2.184,0,0,1,69,256.109V267.04a2.036,2.036,0,0,1-2.236,1.987H63.029l0.007,5.1-5.622-5.1H53.105a2.036,2.036,0,0,1-2.236-1.987s10.008-.055,10.946-0.055A2.567,2.567,0,0,0,63.968,264.844Z" transform="translate(-39 -249.031)"/>
</svg>
