<svg xmlns="http://www.w3.org/2000/svg" xmlns:xlink="http://www.w3.org/1999/xlink" width="35" height="24.97" viewBox="0 0 35 24.97">
  <defs>
    <style>
      .cls-1 {
        fill: #fff;
        fill-rule: evenodd;
        filter: url(#filter);
      }
    </style>
    <filter id="filter" x="1118" y="2127.03" width="35" height="24.97" filterUnits="userSpaceOnUse">
      <feOffset result="offset" dy="1" in="SourceAlpha"/>
      <feGaussianBlur result="blur" stdDeviation="1"/>
      <feFlood result="flood" flood-opacity="0.13"/>
      <feComposite result="composite" operator="in" in2="blur"/>
      <feBlend result="blend" in="SourceGraphic"/>
    </filter>
  </defs>
  <path id="tw.svg" class="cls-1" d="M1150.49,2136.98a7.639,7.639,0,0,1-3.55-.36,3.815,3.815,0,0,0,3.41-2.03,5.624,5.624,0,0,1-3.69.41c-0.05-.26-0.11-0.5-0.17-0.72-0.83-3.05-3.67-5.5-6.64-5.2,0.24-.1.49-0.19,0.73-0.27,0.33-.12,2.25-0.43,1.95-1.11-0.26-.6-2.61.45-3.05,0.59,0.59-.22,1.55-0.6,1.65-1.27a4.558,4.558,0,0,0-2.44,1.16,1.646,1.646,0,0,0,.46-0.93c-2.38,1.52-3.77,4.59-4.9,7.57a12.115,12.115,0,0,0-2.37-1.91,63.524,63.524,0,0,0-8.03-3.54c-0.12,1.23.6,2.86,2.67,3.95a6.147,6.147,0,0,0-1.92.23c0.27,1.4,1.14,2.56,3.51,3.12a2.88,2.88,0,0,0-2.15.85,3.651,3.651,0,0,0,3.85,1.89c-2.4,1.04-.98,2.96.98,2.67a8.3,8.3,0,0,1-11.61.31c7.88,10.75,25.02,6.36,27.57-4A4.731,4.731,0,0,0,1150.49,2136.98Z" transform="translate(-1118 -2127.03)"/>
</svg>
